<svg id="Layer_1" data-name="Layer 1" xmlns="http://www.w3.org/2000/svg" viewBox="0 0 277.6 96.87"><defs><style>.cls-1{fill:#e20d17;}.cls-2{fill:#fff;}.cls-3{fill:none;}</style></defs><title>PWW</title><path class="cls-1" d="M254.92,285.13a25,25,0,1,1,25,25,25,25,0,0,1-25-25m-13.79,0a38.82,38.82,0,1,0,38.82-38.78,38.84,38.84,0,0,0-38.82,38.78" transform="translate(-232.4 -231.63)"/><path class="cls-1" d="M310.92,244.16a6,6,0,1,1,6,6,6,6,0,0,1-6-6m-3.44,0a9.48,9.48,0,1,0,9.48-9.47,9.48,9.48,0,0,0-9.48,9.47" transform="translate(-232.4 -231.63)"/><path class="cls-2" d="M360.15,266.64h5.39v2.8h.07a6.61,6.61,0,0,1,2-2.42,5.18,5.18,0,0,1,3-.81c.31,0,.62,0,.93,0a4.66,4.66,0,0,1,.86.14v4.92a8.25,8.25,0,0,0-1.13-.27,7.42,7.42,0,0,0-1.17-.09,5.72,5.72,0,0,0-2.44.43,3.24,3.24,0,0,0-1.38,1.2,4.6,4.6,0,0,0-.63,1.85,18.15,18.15,0,0,0-.14,2.37v7.29h-5.39Z" transform="translate(-232.4 -231.63)"/><polygon class="cls-2" points="166.3 43.13 160.49 35.01 166.84 35.01 169.93 39.75 172.91 35.01 178.9 35.01 173.23 43.13 179.94 52.46 173.59 52.46 169.78 46.64 165.69 52.46 159.41 52.46 166.3 43.13"/><polygon class="cls-2" points="182.36 35.01 187.74 35.01 187.74 42.95 187.74 52.46 182.35 52.46 182.36 35.01"/><path class="cls-2" d="M424.39,266.64h5.17V269h.07a4.39,4.39,0,0,1,.72-1,5.24,5.24,0,0,1,1.11-.9,6.33,6.33,0,0,1,1.47-.65,6.15,6.15,0,0,1,1.79-.25A6.82,6.82,0,0,1,438,267a4.78,4.78,0,0,1,2.14,2.37,5.84,5.84,0,0,1,2.26-2.4,6.81,6.81,0,0,1,3.27-.72,6.66,6.66,0,0,1,3,.59,4.86,4.86,0,0,1,1.9,1.61,6.85,6.85,0,0,1,1,2.41,13.8,13.8,0,0,1,.31,3v10.3h-5.38V273.93a4,4,0,0,0-.52-2.1,2,2,0,0,0-1.85-.88,3.57,3.57,0,0,0-1.56.31,2.58,2.58,0,0,0-1,.84,3.55,3.55,0,0,0-.54,1.26,7,7,0,0,0-.16,1.51v9.23h-5.38v-9.23c0-.31,0-.69,0-1.15a4.54,4.54,0,0,0-.25-1.29,2.46,2.46,0,0,0-.7-1A2.07,2.07,0,0,0,433,271a3.32,3.32,0,0,0-1.69.38,2.58,2.58,0,0,0-1,1,4.07,4.07,0,0,0-.45,1.42,12,12,0,0,0-.11,1.65v8.69h-5.39Z" transform="translate(-232.4 -231.63)"/><polygon class="cls-2" points="223.29 35.01 228.68 35.01 228.68 43.74 228.68 52.46 223.29 52.46 223.29 35.01"/><path class="cls-2" d="M477.94,270.95H473.2v5.82a11.4,11.4,0,0,0,.07,1.31,2.66,2.66,0,0,0,.32,1,1.64,1.64,0,0,0,.77.66,3.42,3.42,0,0,0,1.38.23,9.32,9.32,0,0,0,1.13-.09,1.92,1.92,0,0,0,1.06-.41V284a8.25,8.25,0,0,1-1.87.43,17.47,17.47,0,0,1-1.9.11,10.37,10.37,0,0,1-2.51-.29,5.72,5.72,0,0,1-2-.92,4.28,4.28,0,0,1-1.34-1.63,5.58,5.58,0,0,1-.49-2.44v-8.29h-3.45v-4.31h3.45v-5.17h5.38v5.17h4.74Z" transform="translate(-232.4 -231.63)"/><path class="cls-2" d="M491.82,286.93q-.54,1.4-1,2.48a6,6,0,0,1-1.28,1.81,5,5,0,0,1-2,1.11,10.64,10.64,0,0,1-3.12.38,12.64,12.64,0,0,1-4-.65l.72-4.42a6.14,6.14,0,0,0,2.51.54,4.62,4.62,0,0,0,1.47-.2,2.44,2.44,0,0,0,1-.57,3.22,3.22,0,0,0,.63-.92c.17-.36.35-.78.54-1.26l.4-1L480,266.64h5.81l4.49,11.52h.07l3.84-11.52h5.53Z" transform="translate(-232.4 -231.63)"/><path class="cls-2" d="M382.7,266.25a9.11,9.11,0,1,0,9.11,9.11,9.11,9.11,0,0,0-9.11-9.11m0,4.66a4.45,4.45,0,1,1-4.45,4.45,4.45,4.45,0,0,1,4.45-4.45" transform="translate(-232.4 -231.63)"/><path class="cls-2" d="M420.57,261.15a3.12,3.12,0,1,1-3.12-3.12,3.12,3.12,0,0,1,3.12,3.12" transform="translate(-232.4 -231.63)"/><path class="cls-2" d="M461.51,261.15a3.12,3.12,0,1,1-3.12-3.12,3.12,3.12,0,0,1,3.12,3.12" transform="translate(-232.4 -231.63)"/><path class="cls-2" d="M351,266.69a9.91,9.91,0,0,0-2.18-.24,6.13,6.13,0,0,0-1.68.22,7.53,7.53,0,0,0-1.46.57,6.1,6.1,0,0,0-1.17.78,5.45,5.45,0,0,0-.81.84h-.07v-2.22h-4.94v25.63h5.39v-9.39h.06a4.49,4.49,0,0,0,.73.54,5.93,5.93,0,0,0,1,.5,8.52,8.52,0,0,0,1.31.37,7.45,7.45,0,0,0,1.51.14l.39,0A9.11,9.11,0,0,0,351,266.69m-2.81,13.11a4.45,4.45,0,1,1,4.44-4.45,4.45,4.45,0,0,1-4.44,4.45" transform="translate(-232.4 -231.63)"/><path class="cls-2" d="M456.18,307.27h6.52V306h-6.52v-4.58h7v-1.26h-8.35v13.46h8.58v-1.26h-7.21Zm-16.79,6.37h4.47a8,8,0,0,0,2.52-.42,6.93,6.93,0,0,0,2.28-1.26,6.44,6.44,0,0,0,1.64-2.1,7.21,7.21,0,0,0,0-5.88,6.41,6.41,0,0,0-1.64-2.11,7,7,0,0,0-2.28-1.26,8,8,0,0,0-2.52-.42h-4.47Zm1.37-12.21h2.66a7,7,0,0,1,2.67.47,5.53,5.53,0,0,1,1.88,1.24,4.94,4.94,0,0,1,1.11,1.75,5.86,5.86,0,0,1,0,4.05,4.93,4.93,0,0,1-1.11,1.75,5.55,5.55,0,0,1-1.88,1.24,7,7,0,0,1-2.67.47h-2.66Zm-6-1.26h-1.37v13.46h1.37V300.18Zm-20.76,0h-1.52l4,13.46h1.6l3.38-11.52h0l3.39,11.52h1.6l4-13.46h-1.52l-3.19,11.52h0l-3.38-11.52h-1.64L417.3,311.7h0Zm-15.12,13.46h4.47a8,8,0,0,0,2.52-.42,6.93,6.93,0,0,0,2.28-1.26,6.44,6.44,0,0,0,1.64-2.1,7.22,7.22,0,0,0,0-5.88,6.41,6.41,0,0,0-1.64-2.11,7,7,0,0,0-2.28-1.26,8,8,0,0,0-2.52-.42h-4.47Zm1.37-12.21h2.66a7,7,0,0,1,2.67.47,5.53,5.53,0,0,1,1.88,1.24,4.94,4.94,0,0,1,1.11,1.75,5.86,5.86,0,0,1,0,4.05,4.93,4.93,0,0,1-1.11,1.75,5.55,5.55,0,0,1-1.88,1.24,7,7,0,0,1-2.67.47h-2.66Zm-10.46-1.26h-1.37v13.46h7.64v-1.26h-6.28Zm-12.42,7.21h2.28l3.69,6.26H385l-3.88-6.39a3.8,3.8,0,0,0,2.56-1.11,3.37,3.37,0,0,0,.88-2.37,3.16,3.16,0,0,0-1.19-2.7,5.28,5.28,0,0,0-3.24-.89H376v13.46h1.37Zm0-6h2.43a5.72,5.72,0,0,1,1.55.18,2.68,2.68,0,0,1,1,.5,1.91,1.91,0,0,1,.55.75,2.41,2.41,0,0,1,.17.9,2.46,2.46,0,0,1-.17.92,1.85,1.85,0,0,1-.55.74,2.89,2.89,0,0,1-1,.5,5.47,5.47,0,0,1-1.55.19H377.4Zm-5.78,2.64a6.68,6.68,0,0,0-3.7-3.71,7.56,7.56,0,0,0-5.57,0,6.69,6.69,0,0,0-3.7,3.71,7.81,7.81,0,0,0,0,5.67,6.69,6.69,0,0,0,3.7,3.71,7.56,7.56,0,0,0,5.57,0,6.68,6.68,0,0,0,3.7-3.71,7.8,7.8,0,0,0,0-5.67m-1.33,5A5.61,5.61,0,0,1,369.2,311a5.26,5.26,0,0,1-1.74,1.27,5.9,5.9,0,0,1-4.64,0,5.29,5.29,0,0,1-1.74-1.27,5.63,5.63,0,0,1-1.09-1.85,6.65,6.65,0,0,1,0-4.43,5.63,5.63,0,0,1,1.09-1.85,5.29,5.29,0,0,1,1.74-1.27,5.9,5.9,0,0,1,4.64,0,5.26,5.26,0,0,1,1.74,1.27,5.61,5.61,0,0,1,1.09,1.85,6.63,6.63,0,0,1,0,4.43m-30.65-8.95h-1.52l4,13.46h1.6l3.39-11.52h0l3.38,11.52h1.6l4-13.46h-1.52l-3.19,11.52h0l-3.38-11.52H346.3l-3.38,11.52h0Z" transform="translate(-232.4 -231.63)"/><rect class="cls-3" width="277.6" height="96.87"/></svg>